<mxfile host="Electron" modified="2025-01-07T18:19:56.795Z" agent="Mozilla/5.0 (Windows NT 10.0; Win64; x64) AppleWebKit/537.36 (KHTML, like Gecko) draw.io/21.3.7 Chrome/112.0.5615.204 Electron/24.5.0 Safari/537.36" etag="mDM785sUzn-FCwU2Abtm" version="21.3.7" type="device">
  <diagram name="Page-1" id="FOhdSjyj7jWP819R6Fuj">
    <mxGraphModel dx="1195" dy="765" grid="1" gridSize="10" guides="1" tooltips="1" connect="1" arrows="1" fold="1" page="1" pageScale="1" pageWidth="827" pageHeight="1169" math="0" shadow="0">
      <root>
        <mxCell id="0" />
        <mxCell id="1" parent="0" />
        <mxCell id="F-Iz_KFsOa6zQz1n_NZj-115" value="" style="rounded=0;whiteSpace=wrap;html=1;fillColor=#f5f5f5;fontColor=#333333;strokeColor=#666666;" vertex="1" parent="1">
          <mxGeometry x="80" y="20" width="700" height="600" as="geometry" />
        </mxCell>
        <mxCell id="F-Iz_KFsOa6zQz1n_NZj-1" style="edgeStyle=orthogonalEdgeStyle;rounded=0;orthogonalLoop=1;jettySize=auto;html=1;entryX=0;entryY=0.5;entryDx=0;entryDy=0;" edge="1" parent="1" source="F-Iz_KFsOa6zQz1n_NZj-2" target="F-Iz_KFsOa6zQz1n_NZj-5">
          <mxGeometry relative="1" as="geometry">
            <Array as="points">
              <mxPoint x="239" y="180" />
            </Array>
          </mxGeometry>
        </mxCell>
        <mxCell id="F-Iz_KFsOa6zQz1n_NZj-2" value="&lt;b&gt;Chatbot&lt;br&gt;Selector&lt;/b&gt;" style="rhombus;whiteSpace=wrap;html=1;fillColor=#dae8fc;strokeColor=#6c8ebf;" vertex="1" parent="1">
          <mxGeometry x="179" y="40" width="120" height="120" as="geometry" />
        </mxCell>
        <mxCell id="F-Iz_KFsOa6zQz1n_NZj-3" style="edgeStyle=orthogonalEdgeStyle;rounded=0;orthogonalLoop=1;jettySize=auto;html=1;entryX=1;entryY=0.5;entryDx=0;entryDy=0;dashed=1;" edge="1" parent="1" source="F-Iz_KFsOa6zQz1n_NZj-5" target="F-Iz_KFsOa6zQz1n_NZj-2">
          <mxGeometry relative="1" as="geometry">
            <Array as="points">
              <mxPoint x="379" y="100" />
            </Array>
          </mxGeometry>
        </mxCell>
        <mxCell id="F-Iz_KFsOa6zQz1n_NZj-4" style="edgeStyle=orthogonalEdgeStyle;rounded=0;orthogonalLoop=1;jettySize=auto;html=1;entryX=0;entryY=0.5;entryDx=0;entryDy=0;" edge="1" parent="1" source="F-Iz_KFsOa6zQz1n_NZj-5" target="F-Iz_KFsOa6zQz1n_NZj-25">
          <mxGeometry relative="1" as="geometry" />
        </mxCell>
        <mxCell id="F-Iz_KFsOa6zQz1n_NZj-5" value="&lt;b&gt;Medication Recommender&lt;/b&gt;" style="rounded=0;whiteSpace=wrap;html=1;fillColor=#f8cecc;strokeColor=#b85450;" vertex="1" parent="1">
          <mxGeometry x="319" y="160" width="131" height="40" as="geometry" />
        </mxCell>
        <mxCell id="F-Iz_KFsOa6zQz1n_NZj-6" value="&lt;font style=&quot;font-size: 10px;&quot;&gt;&lt;i&gt;Selected Chat&lt;/i&gt;&lt;/font&gt;" style="text;html=1;strokeColor=none;fillColor=none;align=center;verticalAlign=middle;whiteSpace=wrap;rounded=0;" vertex="1" parent="1">
          <mxGeometry x="240" y="171" width="70" height="34" as="geometry" />
        </mxCell>
        <mxCell id="F-Iz_KFsOa6zQz1n_NZj-7" value="&lt;span style=&quot;font-size: 10px;&quot;&gt;&lt;i&gt;Select &lt;br&gt;Other Chat&lt;br&gt;&lt;/i&gt;&lt;/span&gt;" style="text;html=1;strokeColor=none;fillColor=none;align=center;verticalAlign=middle;whiteSpace=wrap;rounded=0;" vertex="1" parent="1">
          <mxGeometry x="310" y="100" width="70" height="34" as="geometry" />
        </mxCell>
        <mxCell id="F-Iz_KFsOa6zQz1n_NZj-8" style="edgeStyle=orthogonalEdgeStyle;rounded=0;orthogonalLoop=1;jettySize=auto;html=1;entryX=1;entryY=0.5;entryDx=0;entryDy=0;" edge="1" parent="1" source="F-Iz_KFsOa6zQz1n_NZj-9" target="F-Iz_KFsOa6zQz1n_NZj-11">
          <mxGeometry relative="1" as="geometry">
            <Array as="points">
              <mxPoint x="579" y="260" />
            </Array>
          </mxGeometry>
        </mxCell>
        <mxCell id="F-Iz_KFsOa6zQz1n_NZj-9" value="&lt;b&gt;SPARQL&amp;nbsp;WikiData&lt;br&gt;Medications &amp;amp; Symptoms&lt;/b&gt;" style="rounded=0;whiteSpace=wrap;html=1;fillColor=#f8cecc;strokeColor=#b85450;" vertex="1" parent="1">
          <mxGeometry x="503.5" y="180" width="151" height="40" as="geometry" />
        </mxCell>
        <mxCell id="F-Iz_KFsOa6zQz1n_NZj-10" style="edgeStyle=orthogonalEdgeStyle;rounded=0;orthogonalLoop=1;jettySize=auto;html=1;entryX=1;entryY=0.5;entryDx=0;entryDy=0;" edge="1" parent="1" source="F-Iz_KFsOa6zQz1n_NZj-11" target="F-Iz_KFsOa6zQz1n_NZj-13">
          <mxGeometry relative="1" as="geometry" />
        </mxCell>
        <mxCell id="F-Iz_KFsOa6zQz1n_NZj-11" value="&lt;b&gt;User Input [1]&lt;br&gt;&lt;/b&gt;" style="rounded=0;whiteSpace=wrap;html=1;fillColor=#f8cecc;strokeColor=#b85450;" vertex="1" parent="1">
          <mxGeometry x="319" y="240" width="131" height="40" as="geometry" />
        </mxCell>
        <mxCell id="F-Iz_KFsOa6zQz1n_NZj-12" style="edgeStyle=orthogonalEdgeStyle;rounded=0;orthogonalLoop=1;jettySize=auto;html=1;entryX=0.5;entryY=0;entryDx=0;entryDy=0;" edge="1" parent="1" source="F-Iz_KFsOa6zQz1n_NZj-13" target="F-Iz_KFsOa6zQz1n_NZj-21">
          <mxGeometry relative="1" as="geometry" />
        </mxCell>
        <mxCell id="F-Iz_KFsOa6zQz1n_NZj-13" value="&lt;b&gt;LLM Prompt&amp;nbsp;&lt;br&gt;&lt;/b&gt;&lt;font style=&quot;font-size: 10px;&quot;&gt;&lt;b&gt;Extract Symptoms [English]&lt;/b&gt;&lt;/font&gt;" style="rounded=0;whiteSpace=wrap;html=1;fillColor=#f8cecc;strokeColor=#b85450;" vertex="1" parent="1">
          <mxGeometry x="100" y="240" width="140" height="40" as="geometry" />
        </mxCell>
        <mxCell id="F-Iz_KFsOa6zQz1n_NZj-14" style="edgeStyle=orthogonalEdgeStyle;rounded=0;orthogonalLoop=1;jettySize=auto;html=1;entryX=0;entryY=0.5;entryDx=0;entryDy=0;" edge="1" parent="1" source="F-Iz_KFsOa6zQz1n_NZj-15" target="F-Iz_KFsOa6zQz1n_NZj-19">
          <mxGeometry relative="1" as="geometry" />
        </mxCell>
        <mxCell id="F-Iz_KFsOa6zQz1n_NZj-89" style="edgeStyle=orthogonalEdgeStyle;rounded=0;orthogonalLoop=1;jettySize=auto;html=1;entryX=0.25;entryY=0;entryDx=0;entryDy=0;" edge="1" parent="1" source="F-Iz_KFsOa6zQz1n_NZj-15" target="F-Iz_KFsOa6zQz1n_NZj-88">
          <mxGeometry relative="1" as="geometry">
            <Array as="points">
              <mxPoint x="379" y="380" />
              <mxPoint x="549" y="380" />
            </Array>
          </mxGeometry>
        </mxCell>
        <mxCell id="F-Iz_KFsOa6zQz1n_NZj-15" value="&lt;b style=&quot;&quot;&gt;LLM Response&lt;br&gt;&lt;font style=&quot;font-size: 10px;&quot;&gt;Extracted Symptoms&lt;/font&gt;&lt;br&gt;&lt;/b&gt;" style="rounded=0;whiteSpace=wrap;html=1;fillColor=#f8cecc;strokeColor=#b85450;" vertex="1" parent="1">
          <mxGeometry x="319" y="319" width="131" height="40" as="geometry" />
        </mxCell>
        <mxCell id="F-Iz_KFsOa6zQz1n_NZj-16" value="&lt;span style=&quot;font-size: 10px;&quot;&gt;&lt;i&gt;And&lt;/i&gt;&lt;/span&gt;" style="text;html=1;strokeColor=none;fillColor=none;align=center;verticalAlign=middle;whiteSpace=wrap;rounded=0;" vertex="1" parent="1">
          <mxGeometry x="521" y="143" width="70" height="34" as="geometry" />
        </mxCell>
        <mxCell id="F-Iz_KFsOa6zQz1n_NZj-17" value="&lt;i style=&quot;border-color: var(--border-color); font-size: 10px;&quot;&gt;Forward&lt;/i&gt;" style="text;html=1;strokeColor=none;fillColor=none;align=center;verticalAlign=middle;whiteSpace=wrap;rounded=0;" vertex="1" parent="1">
          <mxGeometry x="100" y="280" width="70" height="34" as="geometry" />
        </mxCell>
        <mxCell id="F-Iz_KFsOa6zQz1n_NZj-91" style="edgeStyle=orthogonalEdgeStyle;rounded=0;orthogonalLoop=1;jettySize=auto;html=1;entryX=0.5;entryY=0;entryDx=0;entryDy=0;" edge="1" parent="1" source="F-Iz_KFsOa6zQz1n_NZj-19" target="F-Iz_KFsOa6zQz1n_NZj-88">
          <mxGeometry relative="1" as="geometry" />
        </mxCell>
        <mxCell id="F-Iz_KFsOa6zQz1n_NZj-19" value="&lt;b&gt;Translate Symptoms to Latin&lt;br&gt;&lt;/b&gt;" style="rounded=0;whiteSpace=wrap;html=1;fillColor=#f8cecc;strokeColor=#b85450;" vertex="1" parent="1">
          <mxGeometry x="519" y="319" width="120" height="40" as="geometry" />
        </mxCell>
        <mxCell id="F-Iz_KFsOa6zQz1n_NZj-20" style="edgeStyle=orthogonalEdgeStyle;rounded=0;orthogonalLoop=1;jettySize=auto;html=1;entryX=0;entryY=0.5;entryDx=0;entryDy=0;" edge="1" parent="1" source="F-Iz_KFsOa6zQz1n_NZj-21" target="F-Iz_KFsOa6zQz1n_NZj-15">
          <mxGeometry relative="1" as="geometry" />
        </mxCell>
        <mxCell id="F-Iz_KFsOa6zQz1n_NZj-21" value="&lt;b&gt;Gemini 2.0&lt;/b&gt;" style="ellipse;whiteSpace=wrap;html=1;aspect=fixed;fillColor=#f8cecc;strokeColor=#b85450;" vertex="1" parent="1">
          <mxGeometry x="135" y="304" width="70" height="70" as="geometry" />
        </mxCell>
        <mxCell id="F-Iz_KFsOa6zQz1n_NZj-22" value="&lt;i style=&quot;border-color: var(--border-color); font-size: 10px;&quot;&gt;Forward&lt;/i&gt;" style="text;html=1;strokeColor=none;fillColor=none;align=center;verticalAlign=middle;whiteSpace=wrap;rounded=0;" vertex="1" parent="1">
          <mxGeometry x="439" y="311" width="70" height="34" as="geometry" />
        </mxCell>
        <mxCell id="F-Iz_KFsOa6zQz1n_NZj-23" value="&lt;i style=&quot;border-color: var(--border-color); font-size: 10px;&quot;&gt;Forward&lt;/i&gt;" style="text;html=1;strokeColor=none;fillColor=none;align=center;verticalAlign=middle;whiteSpace=wrap;rounded=0;" vertex="1" parent="1">
          <mxGeometry x="249" y="230" width="70" height="34" as="geometry" />
        </mxCell>
        <mxCell id="F-Iz_KFsOa6zQz1n_NZj-24" style="edgeStyle=orthogonalEdgeStyle;rounded=0;orthogonalLoop=1;jettySize=auto;html=1;entryX=0.5;entryY=0;entryDx=0;entryDy=0;" edge="1" parent="1" source="F-Iz_KFsOa6zQz1n_NZj-25" target="F-Iz_KFsOa6zQz1n_NZj-9">
          <mxGeometry relative="1" as="geometry" />
        </mxCell>
        <mxCell id="F-Iz_KFsOa6zQz1n_NZj-25" value="&lt;b style=&quot;border-color: var(--border-color);&quot;&gt;Welcome Message&amp;nbsp;&lt;br style=&quot;border-color: var(--border-color);&quot;&gt;+ User Guidelines&lt;/b&gt;" style="rounded=0;whiteSpace=wrap;html=1;fillColor=#f8cecc;strokeColor=#b85450;" vertex="1" parent="1">
          <mxGeometry x="519" y="97" width="120" height="40" as="geometry" />
        </mxCell>
        <mxCell id="F-Iz_KFsOa6zQz1n_NZj-26" value="&lt;span style=&quot;font-size: 10px;&quot;&gt;&lt;i&gt;Display&lt;/i&gt;&lt;/span&gt;" style="text;html=1;strokeColor=none;fillColor=none;align=center;verticalAlign=middle;whiteSpace=wrap;rounded=0;" vertex="1" parent="1">
          <mxGeometry x="460" y="89" width="70" height="34" as="geometry" />
        </mxCell>
        <mxCell id="F-Iz_KFsOa6zQz1n_NZj-27" value="&lt;i style=&quot;border-color: var(--border-color); font-size: 10px;&quot;&gt;Forward&lt;/i&gt;" style="text;html=1;strokeColor=none;fillColor=none;align=center;verticalAlign=middle;whiteSpace=wrap;rounded=0;" vertex="1" parent="1">
          <mxGeometry x="229" y="311" width="70" height="34" as="geometry" />
        </mxCell>
        <mxCell id="F-Iz_KFsOa6zQz1n_NZj-112" style="edgeStyle=orthogonalEdgeStyle;rounded=0;orthogonalLoop=1;jettySize=auto;html=1;entryX=0.5;entryY=1;entryDx=0;entryDy=0;" edge="1" parent="1" source="F-Iz_KFsOa6zQz1n_NZj-56" target="F-Iz_KFsOa6zQz1n_NZj-58">
          <mxGeometry relative="1" as="geometry">
            <Array as="points">
              <mxPoint x="699" y="495" />
            </Array>
          </mxGeometry>
        </mxCell>
        <mxCell id="F-Iz_KFsOa6zQz1n_NZj-56" value="&lt;b&gt;Display Button&lt;br&gt;&lt;/b&gt;" style="rounded=0;whiteSpace=wrap;html=1;fillColor=#f8cecc;strokeColor=#b85450;" vertex="1" parent="1">
          <mxGeometry x="510" y="470" width="129" height="50" as="geometry" />
        </mxCell>
        <mxCell id="F-Iz_KFsOa6zQz1n_NZj-57" style="edgeStyle=orthogonalEdgeStyle;rounded=0;orthogonalLoop=1;jettySize=auto;html=1;entryX=1;entryY=0.5;entryDx=0;entryDy=0;" edge="1" parent="1" source="F-Iz_KFsOa6zQz1n_NZj-58" target="F-Iz_KFsOa6zQz1n_NZj-11">
          <mxGeometry relative="1" as="geometry" />
        </mxCell>
        <mxCell id="F-Iz_KFsOa6zQz1n_NZj-58" value="&lt;b&gt;Query Again&lt;br&gt;&lt;/b&gt;" style="rounded=0;whiteSpace=wrap;html=1;fillColor=#f8cecc;strokeColor=#b85450;" vertex="1" parent="1">
          <mxGeometry x="639" y="240" width="120" height="40" as="geometry" />
        </mxCell>
        <mxCell id="F-Iz_KFsOa6zQz1n_NZj-65" value="&lt;span style=&quot;font-size: 10px;&quot;&gt;&lt;i&gt;Await&lt;/i&gt;&lt;/span&gt;" style="text;html=1;strokeColor=none;fillColor=none;align=center;verticalAlign=middle;whiteSpace=wrap;rounded=0;" vertex="1" parent="1">
          <mxGeometry x="450" y="230" width="70" height="34" as="geometry" />
        </mxCell>
        <mxCell id="F-Iz_KFsOa6zQz1n_NZj-79" value="&lt;span style=&quot;font-size: 10px;&quot;&gt;&lt;i&gt;Choice&lt;/i&gt;&lt;/span&gt;" style="text;html=1;strokeColor=none;fillColor=none;align=center;verticalAlign=middle;whiteSpace=wrap;rounded=0;" vertex="1" parent="1">
          <mxGeometry x="632" y="755" width="70" height="34" as="geometry" />
        </mxCell>
        <mxCell id="F-Iz_KFsOa6zQz1n_NZj-93" style="edgeStyle=orthogonalEdgeStyle;rounded=0;orthogonalLoop=1;jettySize=auto;html=1;entryX=1;entryY=0.5;entryDx=0;entryDy=0;" edge="1" parent="1" source="F-Iz_KFsOa6zQz1n_NZj-88" target="F-Iz_KFsOa6zQz1n_NZj-92">
          <mxGeometry relative="1" as="geometry" />
        </mxCell>
        <mxCell id="F-Iz_KFsOa6zQz1n_NZj-88" value="&lt;b&gt;Join English &amp;amp; &lt;br&gt;Latin Symptoms&lt;br&gt;&lt;/b&gt;" style="rounded=0;whiteSpace=wrap;html=1;fillColor=#f8cecc;strokeColor=#b85450;" vertex="1" parent="1">
          <mxGeometry x="519" y="400" width="120" height="40" as="geometry" />
        </mxCell>
        <mxCell id="F-Iz_KFsOa6zQz1n_NZj-95" style="edgeStyle=orthogonalEdgeStyle;rounded=0;orthogonalLoop=1;jettySize=auto;html=1;entryX=1;entryY=0.5;entryDx=0;entryDy=0;" edge="1" parent="1" source="F-Iz_KFsOa6zQz1n_NZj-92" target="F-Iz_KFsOa6zQz1n_NZj-94">
          <mxGeometry relative="1" as="geometry" />
        </mxCell>
        <mxCell id="F-Iz_KFsOa6zQz1n_NZj-92" value="&lt;b&gt;FuzzyWuzzy&lt;br&gt;&lt;/b&gt;" style="rounded=0;whiteSpace=wrap;html=1;fillColor=#f8cecc;strokeColor=#b85450;" vertex="1" parent="1">
          <mxGeometry x="319" y="400" width="131" height="40" as="geometry" />
        </mxCell>
        <mxCell id="F-Iz_KFsOa6zQz1n_NZj-97" style="edgeStyle=orthogonalEdgeStyle;rounded=0;orthogonalLoop=1;jettySize=auto;html=1;entryX=0.5;entryY=0;entryDx=0;entryDy=0;" edge="1" parent="1" source="F-Iz_KFsOa6zQz1n_NZj-94" target="F-Iz_KFsOa6zQz1n_NZj-96">
          <mxGeometry relative="1" as="geometry" />
        </mxCell>
        <mxCell id="F-Iz_KFsOa6zQz1n_NZj-94" value="&lt;b&gt;Display Matched&lt;br&gt;Symptoms&lt;br&gt;&lt;/b&gt;" style="rounded=0;whiteSpace=wrap;html=1;fillColor=#f8cecc;strokeColor=#b85450;" vertex="1" parent="1">
          <mxGeometry x="120" y="400" width="120" height="40" as="geometry" />
        </mxCell>
        <mxCell id="F-Iz_KFsOa6zQz1n_NZj-105" style="edgeStyle=orthogonalEdgeStyle;rounded=0;orthogonalLoop=1;jettySize=auto;html=1;entryX=0.5;entryY=0;entryDx=0;entryDy=0;" edge="1" parent="1" source="F-Iz_KFsOa6zQz1n_NZj-96" target="F-Iz_KFsOa6zQz1n_NZj-102">
          <mxGeometry relative="1" as="geometry" />
        </mxCell>
        <mxCell id="F-Iz_KFsOa6zQz1n_NZj-96" value="&lt;b&gt;SPARQL for Meds in WikiData to Treat&lt;br&gt;The Symptoms&lt;br&gt;&lt;/b&gt;" style="rounded=0;whiteSpace=wrap;html=1;fillColor=#f8cecc;strokeColor=#b85450;" vertex="1" parent="1">
          <mxGeometry x="120" y="480" width="120" height="50" as="geometry" />
        </mxCell>
        <mxCell id="F-Iz_KFsOa6zQz1n_NZj-106" style="edgeStyle=orthogonalEdgeStyle;rounded=0;orthogonalLoop=1;jettySize=auto;html=1;entryX=0;entryY=0.5;entryDx=0;entryDy=0;" edge="1" parent="1" source="F-Iz_KFsOa6zQz1n_NZj-102" target="F-Iz_KFsOa6zQz1n_NZj-104">
          <mxGeometry relative="1" as="geometry" />
        </mxCell>
        <mxCell id="F-Iz_KFsOa6zQz1n_NZj-102" value="&lt;b&gt;LLM Ouput &lt;br&gt;Format Prompt&lt;br&gt;&lt;/b&gt;" style="rounded=0;whiteSpace=wrap;html=1;fillColor=#f8cecc;strokeColor=#b85450;" vertex="1" parent="1">
          <mxGeometry x="120" y="560" width="120" height="40" as="geometry" />
        </mxCell>
        <mxCell id="F-Iz_KFsOa6zQz1n_NZj-111" style="edgeStyle=orthogonalEdgeStyle;rounded=0;orthogonalLoop=1;jettySize=auto;html=1;entryX=0.5;entryY=1;entryDx=0;entryDy=0;" edge="1" parent="1" source="F-Iz_KFsOa6zQz1n_NZj-103" target="F-Iz_KFsOa6zQz1n_NZj-56">
          <mxGeometry relative="1" as="geometry" />
        </mxCell>
        <mxCell id="F-Iz_KFsOa6zQz1n_NZj-103" value="&lt;b&gt;Display Top-3 Meds&lt;br&gt;For Each Symptom&lt;br&gt;&lt;/b&gt;" style="rounded=0;whiteSpace=wrap;html=1;fillColor=#f8cecc;strokeColor=#b85450;" vertex="1" parent="1">
          <mxGeometry x="510" y="555" width="129" height="50" as="geometry" />
        </mxCell>
        <mxCell id="F-Iz_KFsOa6zQz1n_NZj-110" style="edgeStyle=orthogonalEdgeStyle;rounded=0;orthogonalLoop=1;jettySize=auto;html=1;entryX=0;entryY=0.5;entryDx=0;entryDy=0;" edge="1" parent="1" source="F-Iz_KFsOa6zQz1n_NZj-104" target="F-Iz_KFsOa6zQz1n_NZj-103">
          <mxGeometry relative="1" as="geometry" />
        </mxCell>
        <mxCell id="F-Iz_KFsOa6zQz1n_NZj-104" value="&lt;b&gt;Gemini 2.0&lt;/b&gt;" style="ellipse;whiteSpace=wrap;html=1;aspect=fixed;fillColor=#f8cecc;strokeColor=#b85450;" vertex="1" parent="1">
          <mxGeometry x="349.5" y="480" width="70" height="70" as="geometry" />
        </mxCell>
        <mxCell id="F-Iz_KFsOa6zQz1n_NZj-116" value="&lt;span style=&quot;font-size: 10px;&quot;&gt;&lt;i&gt;Input&lt;/i&gt;&lt;/span&gt;" style="text;html=1;strokeColor=none;fillColor=none;align=center;verticalAlign=middle;whiteSpace=wrap;rounded=0;" vertex="1" parent="1">
          <mxGeometry x="367" y="352" width="70" height="34" as="geometry" />
        </mxCell>
        <mxCell id="F-Iz_KFsOa6zQz1n_NZj-117" value="&lt;span style=&quot;font-size: 10px;&quot;&gt;&lt;i&gt;Input&lt;/i&gt;&lt;/span&gt;" style="text;html=1;strokeColor=none;fillColor=none;align=center;verticalAlign=middle;whiteSpace=wrap;rounded=0;" vertex="1" parent="1">
          <mxGeometry x="562" y="366" width="70" height="34" as="geometry" />
        </mxCell>
        <mxCell id="F-Iz_KFsOa6zQz1n_NZj-118" value="&lt;span style=&quot;font-size: 10px;&quot;&gt;&lt;i&gt;Forward&lt;/i&gt;&lt;/span&gt;" style="text;html=1;strokeColor=none;fillColor=none;align=center;verticalAlign=middle;whiteSpace=wrap;rounded=0;" vertex="1" parent="1">
          <mxGeometry x="449" y="390" width="70" height="34" as="geometry" />
        </mxCell>
        <mxCell id="F-Iz_KFsOa6zQz1n_NZj-119" value="&lt;span style=&quot;font-size: 10px;&quot;&gt;&lt;i&gt;Forward&lt;/i&gt;&lt;/span&gt;" style="text;html=1;strokeColor=none;fillColor=none;align=center;verticalAlign=middle;whiteSpace=wrap;rounded=0;" vertex="1" parent="1">
          <mxGeometry x="249" y="390" width="70" height="34" as="geometry" />
        </mxCell>
        <mxCell id="F-Iz_KFsOa6zQz1n_NZj-120" value="&lt;span style=&quot;font-size: 10px;&quot;&gt;&lt;i&gt;And&lt;/i&gt;&lt;/span&gt;" style="text;html=1;strokeColor=none;fillColor=none;align=center;verticalAlign=middle;whiteSpace=wrap;rounded=0;" vertex="1" parent="1">
          <mxGeometry x="170" y="446" width="70" height="34" as="geometry" />
        </mxCell>
        <mxCell id="F-Iz_KFsOa6zQz1n_NZj-121" value="&lt;span style=&quot;font-size: 10px;&quot;&gt;&lt;i&gt;Forward&lt;/i&gt;&lt;/span&gt;" style="text;html=1;strokeColor=none;fillColor=none;align=center;verticalAlign=middle;whiteSpace=wrap;rounded=0;" vertex="1" parent="1">
          <mxGeometry x="170" y="530" width="70" height="34" as="geometry" />
        </mxCell>
        <mxCell id="F-Iz_KFsOa6zQz1n_NZj-122" value="&lt;span style=&quot;font-size: 10px;&quot;&gt;&lt;i&gt;Forward&lt;/i&gt;&lt;/span&gt;" style="text;html=1;strokeColor=none;fillColor=none;align=center;verticalAlign=middle;whiteSpace=wrap;rounded=0;" vertex="1" parent="1">
          <mxGeometry x="279.5" y="488" width="70" height="34" as="geometry" />
        </mxCell>
        <mxCell id="F-Iz_KFsOa6zQz1n_NZj-123" value="&lt;span style=&quot;font-size: 10px;&quot;&gt;&lt;i&gt;Forward&lt;/i&gt;&lt;/span&gt;" style="text;html=1;strokeColor=none;fillColor=none;align=center;verticalAlign=middle;whiteSpace=wrap;rounded=0;" vertex="1" parent="1">
          <mxGeometry x="440" y="580" width="70" height="34" as="geometry" />
        </mxCell>
        <mxCell id="F-Iz_KFsOa6zQz1n_NZj-124" value="&lt;span style=&quot;font-size: 10px;&quot;&gt;&lt;i&gt;And&lt;/i&gt;&lt;/span&gt;" style="text;html=1;strokeColor=none;fillColor=none;align=center;verticalAlign=middle;whiteSpace=wrap;rounded=0;" vertex="1" parent="1">
          <mxGeometry x="510" y="520" width="70" height="34" as="geometry" />
        </mxCell>
        <mxCell id="F-Iz_KFsOa6zQz1n_NZj-125" value="&lt;span style=&quot;font-size: 10px;&quot;&gt;&lt;i&gt;Choice&lt;/i&gt;&lt;/span&gt;" style="text;html=1;strokeColor=none;fillColor=none;align=center;verticalAlign=middle;whiteSpace=wrap;rounded=0;" vertex="1" parent="1">
          <mxGeometry x="630" y="488" width="70" height="34" as="geometry" />
        </mxCell>
      </root>
    </mxGraphModel>
  </diagram>
</mxfile>
